<svg width="85.030457" height="20.199951" viewBox="0 0 85.0305 20.2" fill="none" xmlns="http://www.w3.org/2000/svg" xmlns:xlink="http://www.w3.org/1999/xlink">
	<desc>
			Created with Pixso.
	</desc>
	<defs/>
	<path id="LOGO" d="M21.83 18.97Q23.86 20.2 26.88 20.2Q29.96 20.2 31.96 18.97C33.29 18.14 34.28 16.96 34.93 15.45C35.6 13.93 35.93 12.15 35.93 10.1C35.93 8.03 35.6 6.24 34.93 4.74C34.28 3.23 33.29 2.06 31.96 1.24Q29.96 -2.48e-5 26.88 -2.48e-5Q23.86 -2.58e-5 21.83 1.24Q21.15 1.66 20.59 2.2Q19.49 3.24 18.83 4.74C18.18 6.24 17.86 8.03 17.86 10.1Q17.86 13.17 18.83 15.45C19.5 16.96 20.5 18.14 21.83 18.97ZM46.35 18.92C47.6 19.77 49.13 20.2 50.95 20.2Q53.27 20.2 54.5 19.4Q55.75 18.6 56.27 17.52L56.87 17.52L56.87 19.85L59.52 19.85L59.52 9.97L50.35 9.97L50.35 12.62L56.27 12.62C56.19 14.15 55.73 15.36 54.9 16.25C54.08 17.11 52.93 17.54 51.45 17.54C49.68 17.54 48.34 16.9 47.42 15.6C46.5 14.28 46.05 12.43 46.05 10.05C46.05 7.74 46.48 5.94 47.35 4.64C48.21 3.34 49.55 2.69 51.35 2.69C52.71 2.69 53.8 3.05 54.6 3.77C55.4 4.49 55.9 5.51 56.1 6.84L59.5 6.84C59.31 5.46 58.9 4.26 58.25 3.24C57.6 2.21 56.7 1.41 55.57 0.84C54.44 0.28 53.05 -2.48e-5 51.42 -2.48e-5C49.45 -2.48e-5 47.8 0.41 46.47 1.24C45.15 2.06 44.16 3.23 43.5 4.74C42.85 6.24 42.52 8.01 42.52 10.05C42.52 12.05 42.85 13.81 43.5 15.35C44.15 16.88 45.1 18.07 46.35 18.92ZM70.93 18.97Q72.95 20.2 75.98 20.2Q79.05 20.2 81.05 18.97C82.38 18.14 83.38 16.96 84.03 15.45C84.69 13.93 85.03 12.15 85.03 10.1C85.03 8.03 84.69 6.24 84.03 4.74C83.38 3.23 82.38 2.06 81.05 1.24Q79.05 -2.48e-5 75.98 -2.48e-5Q72.95 -2.58e-5 70.93 1.24Q70.25 1.66 69.68 2.2Q68.59 3.24 67.93 4.74C67.28 6.24 66.95 8.03 66.95 10.1C66.95 12.15 67.28 13.93 67.93 15.45C68.59 16.96 69.59 18.14 70.93 18.97ZM3.09e-6 0.34L3.09e-6 19.85L12.17 19.85L12.17 17.02L3.5 17.02L3.5 0.34L3.09e-6 0.34ZM30.09 16.55Q28.85 17.5 26.88 17.5Q24.96 17.5 23.73 16.57Q23.19 16.16 22.78 15.57C21.9 14.27 21.46 12.45 21.46 10.1Q21.46 6.57 22.78 4.64Q23.21 4.02 23.77 3.6Q24.99 2.69 26.88 2.69Q28.82 2.69 30.05 3.63Q30.6 4.04 31.01 4.64C31.89 5.93 32.33 7.74 32.33 10.1C32.33 12.45 31.89 14.27 31.01 15.57Q30.61 16.14 30.09 16.55ZM79.18 16.55Q77.94 17.5 75.98 17.5Q74.05 17.5 72.83 16.57Q72.28 16.16 71.88 15.57C70.99 14.27 70.55 12.45 70.55 10.1Q70.55 6.57 71.88 4.64Q72.3 4.02 72.87 3.6Q74.08 2.69 75.98 2.69Q77.91 2.69 79.14 3.63Q79.69 4.04 80.1 4.64C80.98 5.93 81.43 7.74 81.43 10.1Q81.43 13.62 80.1 15.57Q79.71 16.14 79.18 16.55Z" fill="#FFFFFF" fill-opacity="1.000000" fill-rule="evenodd"/>
</svg>
