<svg width="8.160278" height="6.660889" viewBox="0 0 8.16028 6.66089" fill="none" xmlns="http://www.w3.org/2000/svg" xmlns:xlink="http://www.w3.org/1999/xlink">
	<desc>
			Created with Pixso.
	</desc>
	<defs/>
	<path id="Arrow 1" d="M6.95 3.33L4.47 0.85C4.27 0.65 4.27 0.34 4.47 0.14C4.67 -0.05 4.98 -0.05 5.18 0.14L8.01 2.97C8.2 3.17 8.2 3.48 8.01 3.68L5.18 6.51C4.98 6.71 4.67 6.71 4.47 6.51C4.27 6.31 4.27 6 4.47 5.8L6.95 3.33Z" fill="#FF9619" fill-opacity="1.000000" fill-rule="nonzero"/>
	<path id="Arrow 1" d="M6.45 2.83L4.47 0.85C4.27 0.65 4.27 0.34 4.47 0.14C4.67 -0.05 4.98 -0.05 5.18 0.14L8.01 2.97C8.2 3.17 8.2 3.48 8.01 3.68L5.18 6.51C4.98 6.71 4.67 6.71 4.47 6.51C4.27 6.31 4.27 6 4.47 5.8L6.45 3.83L0 3.83L0 2.83L6.45 2.83Z" fill="#FFFFFF" fill-opacity="1.000000" fill-rule="evenodd"/>
</svg>
