<svg width="14.606934" height="14.276123" viewBox="0 0 14.6069 14.2761" fill="none" xmlns="http://www.w3.org/2000/svg" xmlns:xlink="http://www.w3.org/1999/xlink">
	<desc>
			Created with Pixso.
	</desc>
	<defs/>
	<ellipse id="Ellipse 12" cx="7.303467" cy="7.138062" rx="6.803454" ry="6.638068" stroke="#FFFFFF" stroke-opacity="1.000000" stroke-width="1.000000"/>
	<path id="Vector" d="M6.04 2.96C6.49 2.94 6.63 2.94 7.78 2.94C8.92 2.94 9.06 2.94 9.51 2.96C9.95 2.98 10.26 3.05 10.53 3.15C10.81 3.25 11.06 3.41 11.27 3.62C11.49 3.82 11.65 4.06 11.76 4.33C11.86 4.58 11.93 4.88 11.95 5.3C11.97 5.73 11.98 5.87 11.98 6.96C11.98 8.06 11.97 8.19 11.95 8.62C11.93 9.05 11.86 9.34 11.76 9.6C11.65 9.87 11.48 10.11 11.27 10.31C11.06 10.52 10.81 10.67 10.53 10.77C10.26 10.87 9.95 10.94 9.51 10.96C9.06 10.98 8.92 10.99 7.78 10.99C6.63 10.99 6.49 10.98 6.04 10.96C5.6 10.94 5.29 10.87 5.02 10.77C4.74 10.67 4.49 10.51 4.28 10.31C4.07 10.11 3.9 9.87 3.8 9.6C3.69 9.34 3.62 9.05 3.6 8.62C3.58 8.19 3.57 8.06 3.57 6.96C3.57 5.87 3.58 5.73 3.6 5.3C3.62 4.88 3.69 4.58 3.8 4.33C3.9 4.06 4.07 3.82 4.28 3.61C4.49 3.41 4.74 3.25 5.02 3.15C5.29 3.05 5.6 2.98 6.04 2.96L6.04 2.96ZM9.47 3.69C9.03 3.67 8.9 3.66 7.78 3.66C6.65 3.66 6.52 3.67 6.08 3.69C5.67 3.71 5.45 3.77 5.3 3.83C5.1 3.9 4.96 3.99 4.81 4.13C4.68 4.26 4.57 4.42 4.5 4.59C4.44 4.73 4.37 4.94 4.36 5.34C4.34 5.76 4.33 5.89 4.33 6.96C4.33 8.04 4.34 8.16 4.36 8.59C4.37 8.98 4.44 9.19 4.5 9.34C4.57 9.51 4.68 9.67 4.81 9.8C4.95 9.93 5.12 10.03 5.3 10.1C5.45 10.15 5.67 10.22 6.08 10.24C6.52 10.26 6.65 10.26 7.78 10.26C8.9 10.26 9.03 10.26 9.47 10.24C9.88 10.22 10.1 10.15 10.25 10.1C10.45 10.03 10.59 9.94 10.74 9.8C10.88 9.67 10.98 9.51 11.05 9.34C11.11 9.19 11.18 8.98 11.19 8.59C11.22 8.16 11.22 8.04 11.22 6.96C11.22 5.89 11.22 5.76 11.19 5.34C11.18 4.94 11.11 4.73 11.05 4.59C10.97 4.4 10.88 4.27 10.74 4.13C10.6 3.99 10.44 3.89 10.25 3.83C10.1 3.77 9.88 3.71 9.47 3.69ZM7.24 8.2C7.54 8.32 7.87 8.34 8.18 8.25C8.49 8.16 8.76 7.97 8.94 7.71C9.12 7.45 9.2 7.14 9.17 6.83C9.14 6.52 9 6.23 8.77 6.01C8.62 5.87 8.44 5.77 8.25 5.7C8.05 5.63 7.84 5.61 7.64 5.63C7.43 5.65 7.23 5.71 7.06 5.81C6.88 5.91 6.73 6.05 6.61 6.22C6.5 6.38 6.42 6.57 6.39 6.77C6.36 6.96 6.37 7.16 6.43 7.35C6.49 7.54 6.6 7.72 6.74 7.86C6.88 8.01 7.05 8.13 7.24 8.2ZM6.25 5.5C6.45 5.31 6.69 5.16 6.95 5.05C7.21 4.95 7.49 4.89 7.78 4.89C8.06 4.89 8.34 4.95 8.6 5.05C8.86 5.16 9.1 5.31 9.3 5.5C9.5 5.69 9.66 5.92 9.77 6.17C9.88 6.42 9.93 6.69 9.93 6.96C9.93 7.23 9.88 7.5 9.77 7.75C9.66 8 9.5 8.23 9.3 8.42C8.9 8.81 8.35 9.03 7.78 9.03C7.2 9.03 6.65 8.81 6.25 8.42C5.84 8.04 5.62 7.51 5.62 6.96C5.62 6.41 5.84 5.89 6.25 5.5ZM10.41 5.2C10.46 5.16 10.5 5.1 10.53 5.04C10.56 4.98 10.57 4.92 10.57 4.85C10.57 4.79 10.56 4.72 10.54 4.66C10.51 4.6 10.47 4.55 10.42 4.5C10.38 4.46 10.32 4.42 10.26 4.39C10.19 4.37 10.12 4.36 10.06 4.36C9.99 4.36 9.92 4.37 9.86 4.4C9.79 4.43 9.74 4.46 9.69 4.51C9.6 4.6 9.55 4.73 9.55 4.85C9.55 4.98 9.61 5.1 9.7 5.19C9.8 5.28 9.92 5.33 10.06 5.34C10.19 5.34 10.32 5.29 10.41 5.2Z" fill="#FFFFFF" fill-opacity="1.000000" fill-rule="evenodd"/>
</svg>
